name rise38.3101peak57.3503fall81.6963.mot
datacolumns 19
datarows 14
range 13.26495400000000 13.28661700000000
endheader
time	ground_force1_vx	ground_force1_vy	ground_force1_vz	ground_force1_px	ground_force1_py	ground_force1_pz	ground_force2_vx	ground_force2_vy	ground_force2_vz	ground_force2_px	ground_force2_py	ground_force2_pz	ground_torque1_x	ground_torque1_y	ground_torque1_z	ground_torque2_x	ground_torque2_y	ground_torque2_z	
13.26495400000000	-11.64192500000000	44.88361500000000	-13.68496400000000	0.36437700000000	0.00000000000000	0.07811300000000	-57.63907300000000	803.59958900000004	-54.69297400000000	0.16860100000000	0.00000000000000	-0.09853700000000	0.00000000000000	-10.17725700000000	0.00000000000000	0.00000000000000	-29.19307800000000	0.00000000000000	
13.26661700000000	-12.55943400000000	51.18506700000000	-15.09510400000000	0.36728400000000	0.00000000000000	0.07899400000000	-57.95545500000000	800.91136100000006	-54.23917300000000	0.16798300000000	0.00000000000000	-0.09848100000000	0.00000000000000	-11.28800100000000	0.00000000000000	0.00000000000000	-29.03351300000000	0.00000000000000	
13.26828600000000	-13.27246400000000	57.39713600000000	-16.34412600000000	0.36997400000000	0.00000000000000	0.07982700000000	-58.26203300000000	798.10177399999998	-53.76204500000000	0.16737000000000	0.00000000000000	-0.09842100000000	0.00000000000000	-12.29006900000000	0.00000000000000	0.00000000000000	-28.86785100000000	0.00000000000000	
13.26995300000000	-13.76469100000000	63.45770500000000	-17.41109300000000	0.37247900000000	0.00000000000000	0.08061600000000	-58.55916100000000	795.17124300000000	-53.26169100000000	0.16676100000000	0.00000000000000	-0.09835600000000	0.00000000000000	-13.16701400000000	0.00000000000000	0.00000000000000	-28.69625500000000	0.00000000000000	
13.27162400000000	-14.03084700000000	69.33013600000000	-18.28587700000000	0.37482600000000	0.00000000000000	0.08136600000000	-58.84719900000000	792.12019199999997	-52.73823800000000	0.16615700000000	0.00000000000000	-0.09828800000000	0.00000000000000	-13.91035700000000	0.00000000000000	0.00000000000000	-28.51889700000000	0.00000000000000	
13.27328900000000	-14.07569900000000	75.00253499999999	-18.96840100000000	0.37703800000000	0.00000000000000	0.08208100000000	-59.12651600000000	788.94904599999995	-52.19184500000000	0.16555700000000	0.00000000000000	-0.09821600000000	0.00000000000000	-14.51910500000000	0.00000000000000	0.00000000000000	-28.33594900000000	0.00000000000000	
13.27495500000000	-13.91237600000000	80.48508800000000	-19.46719700000000	0.37913300000000	0.00000000000000	0.08276300000000	-59.39748600000000	785.65822200000002	-51.62269600000000	0.16496200000000	0.00000000000000	-0.09813900000000	0.00000000000000	-14.99872900000000	0.00000000000000	0.00000000000000	-28.14759200000000	0.00000000000000	
13.27662400000000	-13.56029700000000	85.80603800000000	-19.79749300000000	0.38112700000000	0.00000000000000	0.08341600000000	-59.66048000000000	782.24812699999995	-51.03100700000000	0.16437200000000	0.00000000000000	-0.09805800000000	0.00000000000000	-15.35979300000000	0.00000000000000	0.00000000000000	-27.95400700000000	0.00000000000000	
13.27828400000000	-13.04294100000000	91.00687000000001	-19.97909300000000	0.38303400000000	0.00000000000000	0.08404200000000	-59.91587100000000	778.71915100000001	-50.41702400000000	0.16378800000000	0.00000000000000	-0.09797200000000	0.00000000000000	-15.61639800000000	0.00000000000000	0.00000000000000	-27.75537900000000	0.00000000000000	
13.27995000000000	-12.38565900000000	96.13723899999999	-20.03424300000000	0.38486400000000	0.00000000000000	0.08464400000000	-60.16402300000000	775.07165699999996	-49.78102500000000	0.16321000000000	0.00000000000000	-0.09788100000000	0.00000000000000	-15.78460500000000	0.00000000000000	0.00000000000000	-27.55189500000000	0.00000000000000	
13.28162200000000	-11.61371900000000	101.25009600000000	-19.98567500000000	0.38662700000000	0.00000000000000	0.08522200000000	-60.40529300000000	771.30598199999997	-49.12331900000000	0.16263900000000	0.00000000000000	-0.09778600000000	0.00000000000000	-15.88097200000000	0.00000000000000	0.00000000000000	-27.34374500000000	0.00000000000000	
13.28329200000000	-10.75067800000000	106.39737000000000	-19.85494100000000	0.38833000000000	0.00000000000000	0.08577900000000	-60.64002500000000	767.42242699999997	-48.44424900000000	0.16207400000000	0.00000000000000	-0.09768600000000	0.00000000000000	-15.92129700000000	0.00000000000000	0.00000000000000	-27.13111800000000	0.00000000000000	
13.28496300000000	-9.81716500000000	111.62644400000001	-19.66112300000000	0.38998000000000	0.00000000000000	0.08631500000000	-60.86854700000000	763.42125499999997	-47.74419200000000	0.16151600000000	0.00000000000000	-0.09758100000000	0.00000000000000	-15.91963500000000	0.00000000000000	0.00000000000000	-26.91420400000000	0.00000000000000	
13.28661700000000	-8.83009700000000	116.97756699999999	-19.41996100000000	0.39158300000000	0.00000000000000	0.08683300000000	-61.09116800000000	759.30268799999999	-47.02355800000000	0.16096600000000	0.00000000000000	-0.09747100000000	0.00000000000000	-15.88761800000000	0.00000000000000	0.00000000000000	-26.69319300000000	0.00000000000000	
